<svg xmlns="http://www.w3.org/2000/svg" width="140" height="140" viewBox="0 0 140 140">
    <g fill="none" fill-rule="nonzero">
        <path fill="#FFD480" d="M29.927 11.141l98.78 98.78-18.939 18.939-98.78-98.78z"/>
        <path fill="#FFD480" d="M128.707 30.079l-98.78 98.78-18.939-18.938 98.78-98.78z"/>
        <path fill="#FFD480" d="M83.417.152v139.696H56.634V.152z"/>
        <path fill="#68207E" d="M7.266 83.391v-8.958l2.141-1.282 5.29 10.24h8.162l-8.29-14.783 8.437-12h-7.907l-5.618 8.208c-1.11 1.563-1.849 2.705-2.215 3.425V56.61H0V83.39h7.266zm32.786 0v-10.46l8.803-16.322h-7.833l-4.613 9.929-4.575-9.93h-7.87l8.803 16.543v10.24h7.285zm23.213 0c3.148 0 5.634-.699 7.458-2.097 1.824-1.399 2.736-3.313 2.736-5.743 0-1.637-.372-2.968-1.116-3.994-.744-1.026-1.946-1.759-3.606-2.198v-.183c1.257-.306 2.27-.99 3.039-2.052.768-1.063 1.153-2.345 1.153-3.847 0-2.284-.882-3.966-2.645-5.047-1.763-1.08-4.463-1.621-8.099-1.621h-9.334V83.39h10.414zm-1.007-16.505H60.08v-4.8h2.032c2.27 0 3.404.751 3.404 2.253 0 .843-.283 1.478-.85 1.906-.568.427-1.37.64-2.408.64zm.366 10.918H60.08V72.18h2.398c1.147 0 2.022.238 2.626.714.604.477.906 1.16.906 2.052 0 1.905-1.128 2.858-3.386 2.858zM95.1 83.391v-5.898h-8.657v-5.057h8.016V66.63h-8.016v-4.213h8.657v-5.807H79.213V83.39h15.886zm23.323 0v-5.844h-10.304V56.61h-7.23V83.39h17.534zm21.274 0v-5.898h-8.657v-5.057h8.016V66.63h-8.016v-4.213h8.657v-5.807h-15.887V83.39h15.887z"/>
    </g>
</svg>
